<?xml version="1.0" standalone="no"?>
<!DOCTYPE svg PUBLIC "-//W3C//DTD SVG 20010904//EN"
 "http://www.w3.org/TR/2001/REC-SVG-20010904/DTD/svg10.dtd">
<svg version="1.0" xmlns="http://www.w3.org/2000/svg"
 width="520.000000pt" height="520.000000pt" viewBox="0 0 520.000000 520.000000"
 preserveAspectRatio="xMidYMid meet">
<metadata>
Created by potrace 1.11, written by Peter Selinger 2001-2013
</metadata>
<g transform="translate(0.000000,520.000000) scale(0.100000,-0.100000)"
fill="#000000" stroke="none">
<path d="M4230 3453 c-287 -50 -502 -241 -594 -528 -40 -125 -56 -235 -51
-365 4 -128 7 -145 36 -245 90 -302 314 -513 599 -564 46 -8 215 -7 265 1 186
32 356 149 470 323 100 153 134 276 140 500 4 122 1 166 -15 235 -43 190 -102
308 -211 421 -141 146 -309 220 -509 224 -58 1 -116 0 -130 -2z m212 -132 c66
-38 96 -65 143 -126 121 -159 184 -403 180 -700 -3 -226 -36 -374 -110 -490
-71 -111 -145 -156 -265 -161 -157 -5 -246 61 -343 257 -96 194 -128 321 -132
529 -4 156 6 236 51 394 34 124 80 210 137 262 65 58 114 75 209 70 64 -3 86
-9 130 -35z"/>
<path d="M135 3407 c-37 -20 -3 -87 44 -87 42 0 91 -32 116 -74 24 -41 49
-109 170 -451 35 -99 122 -341 194 -538 72 -197 131 -366 131 -375 0 -10 7
-39 16 -64 17 -53 55 -78 107 -72 49 6 76 40 88 113 5 34 37 147 70 249 33
103 77 239 98 302 20 63 64 202 97 307 32 106 61 193 65 193 4 0 36 -83 126
-330 25 -67 75 -210 167 -470 59 -168 114 -316 121 -330 16 -29 62 -45 100
-36 31 8 37 22 98 216 25 80 77 244 116 365 38 121 113 360 166 530 54 171
108 331 121 357 29 57 75 94 129 103 22 4 48 9 59 11 40 7 57 41 37 73 -8 12
-55 15 -266 16 -234 1 -257 0 -266 -16 -17 -32 -10 -58 20 -73 16 -9 31 -13
34 -9 11 10 105 -18 123 -38 24 -26 16 -75 -40 -254 -58 -185 -64 -204 -166
-548 -63 -211 -87 -277 -98 -275 -10 2 -52 113 -123 323 -157 463 -199 587
-209 610 -46 104 -25 167 58 180 62 10 87 27 85 60 -1 16 -7 31 -12 34 -14 9
-644 7 -658 -2 -19 -12 -16 -51 5 -69 9 -8 32 -20 51 -27 50 -16 97 -56 125
-104 45 -77 44 -100 -24 -332 -33 -115 -62 -217 -64 -225 -2 -8 -25 -85 -51
-170 -26 -85 -55 -186 -66 -225 -11 -38 -23 -73 -27 -77 -4 -4 -53 131 -110
300 -57 169 -135 397 -174 507 -38 110 -72 216 -74 236 -6 49 23 85 76 94 22
4 41 6 42 4 2 -1 13 3 26 10 24 13 31 64 10 77 -17 11 -645 12 -663 1z"/>
<path d="M2812 3014 c-60 -30 -102 -90 -106 -151 -3 -41 22 -126 49 -167 17
-26 17 -26 -39 -83 -73 -74 -100 -142 -93 -230 6 -69 21 -104 66 -150 46 -48
88 -66 160 -69 72 -3 141 18 196 60 l33 26 30 -37 c26 -32 34 -36 72 -35 52 2
70 16 70 52 0 41 -10 60 -30 60 -10 0 -28 14 -41 31 l-21 31 28 84 c16 46 32
84 36 84 15 0 38 33 38 54 0 36 -23 58 -64 60 -47 4 -67 -20 -91 -109 -10 -36
-21 -65 -24 -65 -3 0 -37 46 -76 101 -38 55 -75 106 -80 112 -25 28 -77 110
-89 140 -26 65 18 129 85 122 14 -2 49 -15 79 -30 46 -23 56 -25 77 -14 24 13
37 44 31 75 -4 20 -152 73 -209 74 -19 0 -59 -12 -87 -26z m117 -559 c44 -60
81 -112 81 -115 0 -3 -16 -16 -36 -30 -54 -36 -133 -35 -173 4 -44 42 -58 118
-33 171 16 34 63 87 73 83 4 -2 44 -52 88 -113z"/>
</g>
</svg>
